<svg xmlns="http://www.w3.org/2000/svg" width="1920" height="1080" viewBox="0 0 1920 1080" fill="none">
  <defs><linearGradient id="ray" x1="0" y1="0" x2="0" y2="1"><stop stop-color="#E8FBFF" stop-opacity=".72"/><stop offset=".3" stop-color="#8DDCFF" stop-opacity=".3"/><stop offset="1" stop-color="#38BDF8" stop-opacity="0"/></linearGradient><linearGradient id="raySoft" x1="0" y1="0" x2="0" y2="1"><stop stop-color="#93C5FD" stop-opacity=".42"/><stop offset="1" stop-color="#2563EB" stop-opacity="0"/></linearGradient><filter id="soft" x="-50%" y="-20%" width="200%" height="140%"><feGaussianBlur stdDeviation="24"/></filter><filter id="wide" x="-50%" y="-20%" width="200%" height="140%"><feGaussianBlur stdDeviation="50"/></filter></defs>
  <g filter="url(#wide)"><path d="M1240 -40L1512 -40L1280 675L1085 675L1240 -40Z" fill="url(#raySoft)" opacity=".5"/><path d="M178 -40H370L610 650H438L178 -40Z" fill="url(#raySoft)" opacity=".32"/></g>
  <g filter="url(#soft)"><path d="M1375 -30H1484L1313 598H1206L1375 -30Z" fill="url(#ray)" opacity=".62"/><path d="M1502 -30H1570L1412 520H1341L1502 -30Z" fill="url(#ray)" opacity=".4"/><path d="M230 -30H300L488 535H408L230 -30Z" fill="url(#ray)" opacity=".38"/><path d="M410 -30H463L576 414H518L410 -30Z" fill="url(#ray)" opacity=".22"/></g>
  <path d="M1428 0L1250 610" stroke="#E8FBFF" stroke-opacity=".24" stroke-width="3" filter="url(#soft)"/>
</svg>
